<?xml version="1.0" standalone="no"?>
<!DOCTYPE svg PUBLIC "-//W3C//DTD SVG 20010904//EN"
 "http://www.w3.org/TR/2001/REC-SVG-20010904/DTD/svg10.dtd">
<svg version="1.0" xmlns="http://www.w3.org/2000/svg"
 width="512.000000pt" height="512.000000pt" viewBox="0 0 512.000000 512.000000"
 preserveAspectRatio="xMidYMid meet">
<metadata>
Created by potrace 1.14, written by Peter Selinger 2001-2017
</metadata>
<g transform="translate(0.000000,512.000000) scale(0.100000,-0.100000)"
fill="#000000" stroke="none">
<path d="M0 2560 l0 -2560 2560 0 2560 0 0 2560 0 2560 -2560 0 -2560 0 0
-2560z m2779 1315 c244 -40 466 -161 594 -324 89 -113 147 -248 147 -342 0
-29 -6 -43 -26 -58 -25 -20 -40 -21 -223 -21 -237 0 -245 3 -280 100 -39 107
-140 188 -282 225 -71 19 -266 19 -347 0 -170 -40 -252 -131 -252 -281 0 -100
33 -162 117 -220 97 -67 208 -104 640 -218 281 -74 453 -156 569 -272 112
-111 164 -247 164 -429 0 -396 -270 -665 -755 -751 -122 -21 -411 -24 -530 -5
-273 43 -474 137 -618 290 -77 82 -140 201 -162 306 -19 93 -19 108 6 139 l20
26 204 0 203 0 31 -26 c17 -14 43 -52 57 -85 32 -70 107 -145 187 -183 99 -48
169 -61 332 -60 221 1 331 32 424 119 62 58 86 116 86 205 -1 183 -122 254
-692 405 -270 71 -394 120 -530 211 -45 30 -102 78 -127 106 -171 196 -193
548 -49 778 116 184 333 314 608 364 109 19 365 20 484 1z"/>
</g>
</svg>
