<svg width="129" height="14" viewBox="0 0 129 14" fill="none" xmlns="http://www.w3.org/2000/svg">
<path d="M5.782 11.14C5.082 11.14 4.42867 11.0093 3.822 10.748C3.21533 10.4867 2.67867 10.1273 2.212 9.67C1.75467 9.20333 1.39533 8.66667 1.134 8.06C0.872667 7.45333 0.742 6.8 0.742 6.1C0.742 5.4 0.872667 4.74667 1.134 4.14C1.39533 3.53333 1.75467 3.00133 2.212 2.544C2.67867 2.07733 3.21533 1.71333 3.822 1.452C4.42867 1.19066 5.082 1.06 5.782 1.06C6.482 1.06 7.13533 1.19066 7.742 1.452C8.34867 1.71333 8.88067 2.07733 9.338 2.544C9.80467 3.00133 10.1687 3.53333 10.43 4.14C10.6913 4.74667 10.822 5.4 10.822 6.1C10.822 6.8 10.6913 7.45333 10.43 8.06C10.1687 8.66667 9.80467 9.20333 9.338 9.67C8.88067 10.1273 8.34867 10.4867 7.742 10.748C7.13533 11.0093 6.482 11.14 5.782 11.14ZM5.782 10.272C6.35133 10.272 6.88333 10.1647 7.378 9.95C7.87267 9.726 8.30667 9.42267 8.68 9.04C9.05333 8.65733 9.34733 8.214 9.562 7.71C9.77667 7.206 9.884 6.66933 9.884 6.1C9.884 5.53067 9.77667 4.994 9.562 4.49C9.34733 3.986 9.05333 3.54267 8.68 3.16C8.30667 2.77733 7.87267 2.47867 7.378 2.264C6.88333 2.04 6.35133 1.928 5.782 1.928C5.21267 1.928 4.68067 2.04 4.186 2.264C3.69133 2.47867 3.25733 2.77733 2.884 3.16C2.51067 3.54267 2.21667 3.986 2.002 4.49C1.79667 4.994 1.694 5.53067 1.694 6.1C1.694 6.66933 1.79667 7.206 2.002 7.71C2.21667 8.214 2.51067 8.65733 2.884 9.04C3.25733 9.42267 3.69133 9.726 4.186 9.95C4.68067 10.1647 5.21267 10.272 5.782 10.272ZM5.782 8.788C5.306 8.788 4.9 8.69 4.564 8.494C4.228 8.28867 3.96667 8.02267 3.78 7.696C3.60267 7.36 3.50467 6.98667 3.486 6.576C3.486 6.492 3.48133 6.38933 3.472 6.268C3.472 6.14667 3.472 6.02533 3.472 5.904C3.48133 5.78267 3.486 5.68 3.486 5.596C3.50467 5.18533 3.60267 4.81667 3.78 4.49C3.96667 4.154 4.228 3.888 4.564 3.692C4.9 3.48667 5.306 3.384 5.782 3.384C6.30467 3.384 6.734 3.468 7.07 3.636C7.406 3.79467 7.65333 3.99533 7.812 4.238C7.97067 4.47133 8.05467 4.70467 8.064 4.938C8.064 5.03133 8.036 5.106 7.98 5.162C7.924 5.218 7.84933 5.246 7.756 5.246H7.308C7.20533 5.246 7.13067 5.218 7.084 5.162C7.03733 5.106 7 5.04533 6.972 4.98C6.89733 4.76533 6.76667 4.602 6.58 4.49C6.40267 4.378 6.13667 4.322 5.782 4.322C5.45533 4.322 5.20333 4.392 5.026 4.532C4.84867 4.66267 4.72267 4.83067 4.648 5.036C4.58267 5.232 4.54533 5.42333 4.536 5.61C4.536 5.694 4.53133 5.79667 4.522 5.918C4.522 6.03 4.522 6.14667 4.522 6.268C4.53133 6.38 4.536 6.478 4.536 6.562C4.54533 6.73933 4.58267 6.93067 4.648 7.136C4.72267 7.34133 4.84867 7.514 5.026 7.654C5.20333 7.78467 5.45533 7.85 5.782 7.85C6.13667 7.85 6.40267 7.794 6.58 7.682C6.76667 7.57 6.89733 7.40667 6.972 7.192C7 7.12667 7.03733 7.066 7.084 7.01C7.13067 6.954 7.20533 6.926 7.308 6.926H7.756C7.84933 6.926 7.924 6.954 7.98 7.01C8.036 7.066 8.064 7.14067 8.064 7.234C8.05467 7.458 7.97067 7.69133 7.812 7.934C7.65333 8.17667 7.406 8.382 7.07 8.55C6.734 8.70867 6.30467 8.788 5.782 8.788ZM16.006 11C15.9127 11 15.8334 10.972 15.768 10.916C15.712 10.8507 15.684 10.7713 15.684 10.678V10.23C15.684 10.146 15.7074 10.0527 15.754 9.95C15.8007 9.84733 15.894 9.73533 16.034 9.614L19.002 6.646C19.478 6.24467 19.8514 5.904 20.122 5.624C20.402 5.33467 20.598 5.05933 20.71 4.798C20.8314 4.53667 20.8921 4.266 20.8921 3.986C20.8921 3.454 20.7427 3.034 20.444 2.726C20.1454 2.40867 19.702 2.25 19.114 2.25C18.7407 2.25 18.4187 2.32933 18.148 2.488C17.8774 2.63733 17.6627 2.84733 17.504 3.118C17.3547 3.37933 17.2567 3.678 17.21 4.014C17.1914 4.13533 17.14 4.21933 17.056 4.266C16.9814 4.31267 16.9114 4.336 16.846 4.336H16.118C16.034 4.336 15.964 4.31267 15.908 4.266C15.852 4.21 15.824 4.14467 15.824 4.07C15.8334 3.71533 15.908 3.36066 16.048 3.006C16.188 2.642 16.3934 2.31533 16.664 2.026C16.944 1.73666 17.2847 1.50333 17.686 1.326C18.0967 1.13933 18.5727 1.046 19.114 1.046C19.8514 1.046 20.4534 1.18133 20.92 1.452C21.3961 1.71333 21.7461 2.06333 21.9701 2.502C22.1941 2.94067 22.306 3.42133 22.306 3.944C22.306 4.35467 22.2361 4.73267 22.0961 5.078C21.956 5.414 21.7507 5.74533 21.4801 6.072C21.2187 6.38933 20.892 6.716 20.5 7.052L17.812 9.782H22.18C22.2827 9.782 22.3621 9.81 22.4181 9.866C22.4834 9.922 22.516 10.0013 22.516 10.104V10.678C22.516 10.7713 22.4834 10.8507 22.4181 10.916C22.3621 10.972 22.2827 11 22.18 11H16.006ZM27.6528 11.14C27.0088 11.14 26.4628 11.042 26.0148 10.846C25.5762 10.6407 25.2168 10.3607 24.9368 10.006C24.6568 9.65133 24.4515 9.24533 24.3208 8.788C24.1995 8.33067 24.1295 7.84533 24.1108 7.332C24.1015 7.08 24.0922 6.814 24.0828 6.534C24.0828 6.254 24.0828 5.974 24.0828 5.694C24.0922 5.40467 24.1015 5.12933 24.1108 4.868C24.1202 4.35467 24.1902 3.86933 24.3208 3.412C24.4608 2.94533 24.6662 2.53933 24.9368 2.194C25.2168 1.83933 25.5808 1.564 26.0288 1.368C26.4768 1.16266 27.0182 1.06 27.6528 1.06C28.2968 1.06 28.8382 1.16266 29.2768 1.368C29.7248 1.564 30.0888 1.83933 30.3688 2.194C30.6488 2.53933 30.8542 2.94533 30.9848 3.412C31.1248 3.86933 31.1995 4.35467 31.2088 4.868C31.2182 5.12933 31.2228 5.40467 31.2228 5.694C31.2322 5.974 31.2322 6.254 31.2228 6.534C31.2228 6.814 31.2182 7.08 31.2088 7.332C31.1995 7.84533 31.1248 8.33067 30.9848 8.788C30.8542 9.24533 30.6488 9.65133 30.3688 10.006C30.0982 10.3607 29.7388 10.6407 29.2908 10.846C28.8522 11.042 28.3062 11.14 27.6528 11.14ZM27.6528 9.95C28.3808 9.95 28.9175 9.712 29.2628 9.236C29.6175 8.75067 29.7995 8.09267 29.8088 7.262C29.8275 6.99133 29.8368 6.73 29.8368 6.478C29.8368 6.21667 29.8368 5.96 29.8368 5.708C29.8368 5.44667 29.8275 5.19 29.8088 4.938C29.7995 4.126 29.6175 3.47733 29.2628 2.992C28.9175 2.49733 28.3808 2.25 27.6528 2.25C26.9342 2.25 26.3975 2.49733 26.0428 2.992C25.6975 3.47733 25.5155 4.126 25.4968 4.938C25.4968 5.19 25.4922 5.44667 25.4828 5.708C25.4828 5.96 25.4828 6.21667 25.4828 6.478C25.4922 6.73 25.4968 6.99133 25.4968 7.262C25.5155 8.09267 25.7022 8.75067 26.0568 9.236C26.4115 9.712 26.9435 9.95 27.6528 9.95ZM33.1096 11C33.0162 11 32.9369 10.972 32.8716 10.916C32.8156 10.8507 32.7876 10.7713 32.7876 10.678V10.23C32.7876 10.146 32.8109 10.0527 32.8576 9.95C32.9042 9.84733 32.9976 9.73533 33.1376 9.614L36.1056 6.646C36.5816 6.24467 36.9549 5.904 37.2256 5.624C37.5056 5.33467 37.7016 5.05933 37.8136 4.798C37.9349 4.53667 37.9956 4.266 37.9956 3.986C37.9956 3.454 37.8462 3.034 37.5476 2.726C37.2489 2.40867 36.8056 2.25 36.2176 2.25C35.8442 2.25 35.5222 2.32933 35.2516 2.488C34.9809 2.63733 34.7662 2.84733 34.6076 3.118C34.4582 3.37933 34.3602 3.678 34.3136 4.014C34.2949 4.13533 34.2436 4.21933 34.1596 4.266C34.0849 4.31267 34.0149 4.336 33.9496 4.336H33.2216C33.1376 4.336 33.0676 4.31267 33.0116 4.266C32.9556 4.21 32.9276 4.14467 32.9276 4.07C32.9369 3.71533 33.0116 3.36066 33.1516 3.006C33.2916 2.642 33.4969 2.31533 33.7676 2.026C34.0476 1.73666 34.3882 1.50333 34.7896 1.326C35.2002 1.13933 35.6762 1.046 36.2176 1.046C36.9549 1.046 37.5569 1.18133 38.0236 1.452C38.4996 1.71333 38.8496 2.06333 39.0736 2.502C39.2976 2.94067 39.4096 3.42133 39.4096 3.944C39.4096 4.35467 39.3396 4.73267 39.1996 5.078C39.0596 5.414 38.8542 5.74533 38.5836 6.072C38.3222 6.38933 37.9956 6.716 37.6036 7.052L34.9156 9.782H39.2836C39.3862 9.782 39.4656 9.81 39.5216 9.866C39.5869 9.922 39.6196 10.0013 39.6196 10.104V10.678C39.6196 10.7713 39.5869 10.8507 39.5216 10.916C39.4656 10.972 39.3862 11 39.2836 11H33.1096ZM44.1824 11C44.089 11 44.0097 10.972 43.9444 10.916C43.8884 10.8507 43.8604 10.7713 43.8604 10.678V2.838L41.5364 4.63C41.4617 4.686 41.3824 4.70933 41.2984 4.7C41.2144 4.69067 41.1444 4.64867 41.0884 4.574L40.7244 4.112C40.6684 4.028 40.645 3.944 40.6544 3.86C40.673 3.776 40.7197 3.706 40.7944 3.65L43.8464 1.298C43.9117 1.25133 43.9724 1.22333 44.0284 1.214C44.0844 1.20466 44.145 1.2 44.2104 1.2H44.9244C45.0177 1.2 45.0924 1.23266 45.1484 1.298C45.2044 1.354 45.2324 1.42866 45.2324 1.522V10.678C45.2324 10.7713 45.2044 10.8507 45.1484 10.916C45.0924 10.972 45.0177 11 44.9244 11H44.1824ZM54.1063 11.14C53.2943 11.14 52.613 11.0187 52.0623 10.776C51.5116 10.524 51.087 10.202 50.7883 9.81C50.499 9.40867 50.345 8.984 50.3263 8.536C50.3263 8.46133 50.3543 8.396 50.4103 8.34C50.4756 8.27467 50.5503 8.242 50.6343 8.242H51.3483C51.4603 8.242 51.5443 8.27 51.6003 8.326C51.6563 8.382 51.6936 8.44733 51.7123 8.522C51.759 8.746 51.871 8.97 52.0483 9.194C52.235 9.40867 52.4916 9.59067 52.8183 9.74C53.1543 9.88 53.5836 9.95 54.1063 9.95C54.909 9.95 55.497 9.81 55.8703 9.53C56.253 9.24067 56.4443 8.858 56.4443 8.382C56.4443 8.05533 56.3416 7.794 56.1363 7.598C55.9403 7.39267 55.637 7.21067 55.2263 7.052C54.8156 6.89333 54.2836 6.72067 53.6303 6.534C52.949 6.338 52.3843 6.12333 51.9363 5.89C51.4883 5.65667 51.1523 5.36733 50.9283 5.022C50.7136 4.67667 50.6063 4.238 50.6063 3.706C50.6063 3.202 50.7416 2.754 51.0123 2.362C51.283 1.96066 51.6703 1.64333 52.1743 1.41C52.6876 1.17666 53.3083 1.06 54.0363 1.06C54.615 1.06 55.119 1.13933 55.5483 1.298C55.987 1.44733 56.351 1.65266 56.6403 1.914C56.9296 2.166 57.149 2.44133 57.2983 2.74C57.4476 3.02933 57.527 3.314 57.5363 3.594C57.5363 3.65933 57.513 3.72467 57.4663 3.79C57.4196 3.846 57.345 3.874 57.2423 3.874H56.5003C56.435 3.874 56.365 3.85533 56.2903 3.818C56.225 3.78067 56.1736 3.71067 56.1363 3.608C56.0803 3.22533 55.8656 2.90333 55.4923 2.642C55.119 2.38067 54.6336 2.25 54.0363 2.25C53.4296 2.25 52.935 2.36667 52.5523 2.6C52.179 2.83333 51.9923 3.19733 51.9923 3.692C51.9923 4.00933 52.081 4.27533 52.2583 4.49C52.4356 4.69533 52.7156 4.87733 53.0983 5.036C53.481 5.19467 53.9803 5.36267 54.5963 5.54C55.343 5.74533 55.9543 5.96467 56.4303 6.198C56.9063 6.422 57.2563 6.70667 57.4803 7.052C57.7136 7.388 57.8303 7.822 57.8303 8.354C57.8303 8.942 57.6763 9.446 57.3683 9.866C57.0603 10.2767 56.6263 10.594 56.0663 10.818C55.5156 11.0327 54.8623 11.14 54.1063 11.14ZM59.8053 11C59.7119 11 59.6326 10.972 59.5673 10.916C59.5113 10.8507 59.4833 10.7713 59.4833 10.678V4.042C59.4833 3.94867 59.5113 3.874 59.5673 3.818C59.6326 3.75267 59.7119 3.72 59.8053 3.72H60.4773C60.5706 3.72 60.6453 3.75267 60.7013 3.818C60.7573 3.874 60.7853 3.94867 60.7853 4.042V10.678C60.7853 10.7713 60.7573 10.8507 60.7013 10.916C60.6453 10.972 60.5706 11 60.4773 11H59.8053ZM59.6933 2.362C59.5999 2.362 59.5206 2.334 59.4553 2.278C59.3993 2.21266 59.3713 2.13333 59.3713 2.04V1.284C59.3713 1.19066 59.3993 1.116 59.4553 1.06C59.5206 0.994665 59.5999 0.961999 59.6933 0.961999H60.5753C60.6686 0.961999 60.7433 0.994665 60.7993 1.06C60.8646 1.116 60.8973 1.19066 60.8973 1.284V2.04C60.8973 2.13333 60.8646 2.21266 60.7993 2.278C60.7433 2.334 60.6686 2.362 60.5753 2.362H59.6933ZM63.3326 11C63.2393 11 63.16 10.972 63.0946 10.916C63.0386 10.8507 63.0106 10.7713 63.0106 10.678V4.042C63.0106 3.94867 63.0386 3.874 63.0946 3.818C63.16 3.75267 63.2393 3.72 63.3326 3.72H63.9626C64.056 3.72 64.1306 3.75267 64.1866 3.818C64.252 3.874 64.2846 3.94867 64.2846 4.042V4.532C64.4993 4.24267 64.77 4.014 65.0966 3.846C65.4233 3.66867 65.8153 3.58 66.2726 3.58C67.3273 3.57067 68.074 4 68.5126 4.868C68.7273 4.476 69.04 4.16333 69.4506 3.93C69.8613 3.69667 70.328 3.58 70.8506 3.58C71.336 3.58 71.7746 3.692 72.1666 3.916C72.568 4.14 72.8806 4.48067 73.1046 4.938C73.338 5.386 73.4546 5.95067 73.4546 6.632V10.678C73.4546 10.7713 73.422 10.8507 73.3566 10.916C73.3006 10.972 73.226 11 73.1326 11H72.4746C72.3813 11 72.302 10.972 72.2366 10.916C72.1806 10.8507 72.1526 10.7713 72.1526 10.678V6.758C72.1526 6.23533 72.078 5.82467 71.9286 5.526C71.7793 5.22733 71.5786 5.01733 71.3266 4.896C71.0746 4.77467 70.7993 4.714 70.5006 4.714C70.258 4.714 70.0106 4.77467 69.7586 4.896C69.5066 5.01733 69.2966 5.22733 69.1286 5.526C68.97 5.82467 68.8906 6.23533 68.8906 6.758V10.678C68.8906 10.7713 68.858 10.8507 68.7926 10.916C68.7366 10.972 68.662 11 68.5686 11H67.9106C67.8173 11 67.738 10.972 67.6726 10.916C67.6166 10.8507 67.5886 10.7713 67.5886 10.678V6.758C67.5886 6.23533 67.5093 5.82467 67.3506 5.526C67.192 5.22733 66.9866 5.01733 66.7346 4.896C66.4826 4.77467 66.2166 4.714 65.9366 4.714C65.694 4.714 65.4466 4.77467 65.1946 4.896C64.9426 5.01733 64.7326 5.22733 64.5646 5.526C64.406 5.82467 64.3266 6.23067 64.3266 6.744V10.678C64.3266 10.7713 64.294 10.8507 64.2286 10.916C64.1726 10.972 64.098 11 64.0046 11H63.3326ZM75.788 13.66C75.6947 13.66 75.6154 13.6273 75.55 13.562C75.494 13.506 75.466 13.4313 75.466 13.338V4.042C75.466 3.94867 75.494 3.874 75.55 3.818C75.6154 3.75267 75.6947 3.72 75.788 3.72H76.432C76.5254 3.72 76.6 3.75267 76.656 3.818C76.7214 3.874 76.754 3.94867 76.754 4.042V4.658C76.978 4.35 77.2767 4.09333 77.65 3.888C78.0234 3.68267 78.49 3.58 79.05 3.58C79.5727 3.58 80.016 3.66867 80.38 3.846C80.7534 4.02333 81.0567 4.266 81.29 4.574C81.5327 4.882 81.7147 5.232 81.836 5.624C81.9574 6.016 82.0227 6.436 82.032 6.884C82.0414 7.03333 82.046 7.192 82.046 7.36C82.046 7.528 82.0414 7.68667 82.032 7.836C82.0227 8.27467 81.9574 8.69467 81.836 9.096C81.7147 9.488 81.5327 9.838 81.29 10.146C81.0567 10.4447 80.7534 10.6873 80.38 10.874C80.016 11.0513 79.5727 11.14 79.05 11.14C78.5087 11.14 78.0514 11.042 77.678 10.846C77.314 10.6407 77.0154 10.3887 76.782 10.09V13.338C76.782 13.4313 76.754 13.506 76.698 13.562C76.642 13.6273 76.5627 13.66 76.46 13.66H75.788ZM78.756 10.006C79.2414 10.006 79.6194 9.90333 79.89 9.698C80.17 9.48333 80.3707 9.208 80.492 8.872C80.6134 8.52667 80.6834 8.158 80.702 7.766C80.7114 7.49533 80.7114 7.22467 80.702 6.954C80.6834 6.562 80.6134 6.198 80.492 5.862C80.3707 5.51667 80.17 5.24133 79.89 5.036C79.6194 4.82133 79.2414 4.714 78.756 4.714C78.2987 4.714 77.9254 4.82133 77.636 5.036C77.356 5.25067 77.146 5.526 77.006 5.862C76.8754 6.18867 76.8007 6.52467 76.782 6.87C76.7727 7.01933 76.768 7.19667 76.768 7.402C76.768 7.60733 76.7727 7.78933 76.782 7.948C76.7914 8.27467 76.866 8.59667 77.006 8.914C77.1554 9.23133 77.3747 9.49267 77.664 9.698C77.9534 9.90333 78.3174 10.006 78.756 10.006ZM84.1279 11C84.0345 11 83.9552 10.972 83.8899 10.916C83.8339 10.8507 83.8059 10.7713 83.8059 10.678V1.382C83.8059 1.28866 83.8339 1.214 83.8899 1.158C83.9552 1.09266 84.0345 1.06 84.1279 1.06H84.7859C84.8885 1.06 84.9679 1.09266 85.0239 1.158C85.0799 1.214 85.1079 1.28866 85.1079 1.382V10.678C85.1079 10.7713 85.0799 10.8507 85.0239 10.916C84.9679 10.972 84.8885 11 84.7859 11H84.1279ZM90.0942 11.14C89.1328 11.14 88.3675 10.846 87.7982 10.258C87.2288 9.66067 86.9162 8.84867 86.8602 7.822C86.8508 7.70067 86.8462 7.54667 86.8462 7.36C86.8462 7.164 86.8508 7.00533 86.8602 6.884C86.8975 6.22133 87.0515 5.64267 87.3222 5.148C87.5928 4.644 87.9615 4.25667 88.4282 3.986C88.9042 3.71533 89.4595 3.58 90.0942 3.58C90.8035 3.58 91.3962 3.72933 91.8722 4.028C92.3575 4.32667 92.7262 4.75133 92.9782 5.302C93.2302 5.85267 93.3562 6.49667 93.3562 7.234V7.472C93.3562 7.57467 93.3235 7.654 93.2582 7.71C93.2022 7.766 93.1275 7.794 93.0342 7.794H88.1902C88.1902 7.80333 88.1902 7.822 88.1902 7.85C88.1902 7.878 88.1902 7.90133 88.1902 7.92C88.2088 8.30267 88.2928 8.662 88.4422 8.998C88.5915 9.32467 88.8062 9.59067 89.0862 9.796C89.3662 10.0013 89.7022 10.104 90.0942 10.104C90.4302 10.104 90.7102 10.0527 90.9342 9.95C91.1582 9.84733 91.3402 9.73533 91.4802 9.614C91.6202 9.48333 91.7135 9.38533 91.7602 9.32C91.8442 9.19867 91.9095 9.12867 91.9562 9.11C92.0028 9.082 92.0775 9.068 92.1802 9.068H92.8522C92.9455 9.068 93.0202 9.096 93.0762 9.152C93.1415 9.19867 93.1695 9.26867 93.1602 9.362C93.1508 9.502 93.0762 9.67467 92.9362 9.88C92.7962 10.076 92.5955 10.272 92.3342 10.468C92.0728 10.664 91.7555 10.8273 91.3822 10.958C91.0088 11.0793 90.5795 11.14 90.0942 11.14ZM88.1902 6.828H92.0262V6.786C92.0262 6.366 91.9468 5.99267 91.7882 5.666C91.6388 5.33933 91.4195 5.08267 91.1302 4.896C90.8408 4.7 90.4955 4.602 90.0942 4.602C89.6928 4.602 89.3475 4.7 89.0582 4.896C88.7782 5.08267 88.5635 5.33933 88.4142 5.666C88.2648 5.99267 88.1902 6.366 88.1902 6.786V6.828ZM98.9658 11C98.8631 11 98.7838 10.972 98.7278 10.916C98.6718 10.8507 98.6438 10.7713 98.6438 10.678V1.536C98.6438 1.43333 98.6718 1.354 98.7278 1.298C98.7838 1.23266 98.8631 1.2 98.9658 1.2H104.678C104.78 1.2 104.86 1.23266 104.916 1.298C104.972 1.354 105 1.43333 105 1.536V2.096C105 2.19867 104.972 2.278 104.916 2.334C104.86 2.39 104.78 2.418 104.678 2.418H100.002V5.68H104.398C104.5 5.68 104.58 5.71267 104.636 5.778C104.692 5.834 104.72 5.91333 104.72 6.016V6.576C104.72 6.66933 104.692 6.74867 104.636 6.814C104.58 6.87 104.5 6.898 104.398 6.898H100.002V10.678C100.002 10.7713 99.9691 10.8507 99.9038 10.916C99.8478 10.972 99.7685 11 99.6658 11H98.9658ZM109.469 11.14C108.76 11.14 108.167 11.0047 107.691 10.734C107.215 10.4633 106.851 10.09 106.599 9.614C106.347 9.12867 106.207 8.578 106.179 7.962C106.17 7.80333 106.165 7.60267 106.165 7.36C106.165 7.108 106.17 6.90733 106.179 6.758C106.207 6.13267 106.347 5.582 106.599 5.106C106.861 4.63 107.229 4.25667 107.705 3.986C108.181 3.71533 108.769 3.58 109.469 3.58C110.169 3.58 110.757 3.71533 111.233 3.986C111.709 4.25667 112.073 4.63 112.325 5.106C112.587 5.582 112.731 6.13267 112.759 6.758C112.769 6.90733 112.773 7.108 112.773 7.36C112.773 7.60267 112.769 7.80333 112.759 7.962C112.731 8.578 112.591 9.12867 112.339 9.614C112.087 10.09 111.723 10.4633 111.247 10.734C110.771 11.0047 110.179 11.14 109.469 11.14ZM109.469 10.062C110.048 10.062 110.51 9.88 110.855 9.516C111.201 9.14267 111.387 8.60133 111.415 7.892C111.425 7.752 111.429 7.57467 111.429 7.36C111.429 7.14533 111.425 6.968 111.415 6.828C111.387 6.11867 111.201 5.582 110.855 5.218C110.51 4.84467 110.048 4.658 109.469 4.658C108.891 4.658 108.424 4.84467 108.069 5.218C107.724 5.582 107.542 6.11867 107.523 6.828C107.514 6.968 107.509 7.14533 107.509 7.36C107.509 7.57467 107.514 7.752 107.523 7.892C107.542 8.60133 107.724 9.14267 108.069 9.516C108.424 9.88 108.891 10.062 109.469 10.062ZM117.508 11.14C116.799 11.14 116.206 11.0047 115.73 10.734C115.254 10.4633 114.89 10.09 114.638 9.614C114.386 9.12867 114.246 8.578 114.218 7.962C114.209 7.80333 114.204 7.60267 114.204 7.36C114.204 7.108 114.209 6.90733 114.218 6.758C114.246 6.13267 114.386 5.582 114.638 5.106C114.9 4.63 115.268 4.25667 115.744 3.986C116.22 3.71533 116.808 3.58 117.508 3.58C118.208 3.58 118.796 3.71533 119.272 3.986C119.748 4.25667 120.112 4.63 120.364 5.106C120.626 5.582 120.77 6.13267 120.798 6.758C120.808 6.90733 120.812 7.108 120.812 7.36C120.812 7.60267 120.808 7.80333 120.798 7.962C120.77 8.578 120.63 9.12867 120.378 9.614C120.126 10.09 119.762 10.4633 119.286 10.734C118.81 11.0047 118.218 11.14 117.508 11.14ZM117.508 10.062C118.087 10.062 118.549 9.88 118.894 9.516C119.24 9.14267 119.426 8.60133 119.454 7.892C119.464 7.752 119.468 7.57467 119.468 7.36C119.468 7.14533 119.464 6.968 119.454 6.828C119.426 6.11867 119.24 5.582 118.894 5.218C118.549 4.84467 118.087 4.658 117.508 4.658C116.93 4.658 116.463 4.84467 116.108 5.218C115.763 5.582 115.581 6.11867 115.562 6.828C115.553 6.968 115.548 7.14533 115.548 7.36C115.548 7.57467 115.553 7.752 115.562 7.892C115.581 8.60133 115.763 9.14267 116.108 9.516C116.463 9.88 116.93 10.062 117.508 10.062ZM125.225 11.14C124.712 11.14 124.269 11.0513 123.895 10.874C123.522 10.6873 123.214 10.44 122.971 10.132C122.738 9.81467 122.561 9.45533 122.439 9.054C122.327 8.65267 122.262 8.228 122.243 7.78C122.234 7.63067 122.229 7.49067 122.229 7.36C122.229 7.22933 122.234 7.08933 122.243 6.94C122.262 6.50133 122.327 6.08133 122.439 5.68C122.561 5.27867 122.738 4.91933 122.971 4.602C123.214 4.28467 123.522 4.03733 123.895 3.86C124.269 3.67333 124.712 3.58 125.225 3.58C125.776 3.58 126.233 3.678 126.597 3.874C126.961 4.07 127.26 4.31267 127.493 4.602V1.382C127.493 1.28866 127.521 1.214 127.577 1.158C127.643 1.09266 127.722 1.06 127.815 1.06H128.487C128.581 1.06 128.655 1.09266 128.711 1.158C128.777 1.214 128.809 1.28866 128.809 1.382V10.678C128.809 10.7713 128.777 10.8507 128.711 10.916C128.655 10.972 128.581 11 128.487 11H127.857C127.755 11 127.675 10.972 127.619 10.916C127.563 10.8507 127.535 10.7713 127.535 10.678V10.09C127.302 10.3887 126.999 10.6407 126.625 10.846C126.252 11.042 125.785 11.14 125.225 11.14ZM125.519 10.006C125.986 10.006 126.359 9.89867 126.639 9.684C126.919 9.46933 127.129 9.19867 127.269 8.872C127.409 8.536 127.484 8.19533 127.493 7.85C127.503 7.70067 127.507 7.52333 127.507 7.318C127.507 7.10333 127.503 6.92133 127.493 6.772C127.484 6.44533 127.405 6.12333 127.255 5.806C127.115 5.48867 126.901 5.22733 126.611 5.022C126.331 4.81667 125.967 4.714 125.519 4.714C125.043 4.714 124.665 4.82133 124.385 5.036C124.105 5.24133 123.905 5.51667 123.783 5.862C123.662 6.198 123.592 6.562 123.573 6.954C123.564 7.22467 123.564 7.49533 123.573 7.766C123.592 8.158 123.662 8.52667 123.783 8.872C123.905 9.208 124.105 9.48333 124.385 9.698C124.665 9.90333 125.043 10.006 125.519 10.006Z" fill="#31352B"/>
</svg>
